<svg width="38" height="46" viewBox="0 0 38 46" fill="none" xmlns="http://www.w3.org/2000/svg">
<path d="M31.6369 24.1397C31.584 18.405 36.4529 15.6151 36.6755 15.4852C33.9181 11.5654 29.6441 11.0298 28.1422 10.9871C24.5526 10.6188 21.0707 13.0814 19.2421 13.0814C17.377 13.0814 14.5612 11.0227 11.5263 11.0832C7.62102 11.1419 3.96754 13.3465 1.96378 16.7698C-2.17148 23.75 0.912633 34.0076 4.87453 39.6498C6.85638 42.413 9.1722 45.4983 12.2034 45.3898C15.1689 45.2705 16.2766 43.5464 19.8553 43.5464C23.4011 43.5464 24.4413 45.3898 27.5327 45.3204C30.7153 45.2705 32.7191 42.5447 34.6316 39.7565C36.9219 36.5894 37.8416 33.4703 37.8781 33.3101C37.8033 33.2852 31.6971 31.0131 31.6369 24.1397Z" fill="white"/>
<path d="M25.7972 7.27553C27.3922 5.33076 28.4835 2.68495 28.1805 0C25.872 0.0996404 22.985 1.55688 21.3225 3.45895C19.8516 5.13504 18.5377 7.88227 18.8771 10.4658C21.4703 10.6544 24.1329 9.19005 25.7972 7.27553Z" fill="white"/>
</svg>
