<svg width="27" height="27" viewBox="0 0 27 27" fill="none" xmlns="http://www.w3.org/2000/svg">
<path d="M13.0053 2.35036C16.4525 2.35036 16.9226 2.35036 18.3328 2.35036C19.5864 2.35036 20.2131 2.66375 20.6832 2.82044C21.31 3.13382 21.78 3.29051 22.2501 3.76058C22.7202 4.23066 23.0336 4.70073 23.1903 5.32749C23.347 5.79757 23.5036 6.42433 23.6603 7.67786C23.6603 9.08808 23.6603 9.40146 23.6603 13.0053C23.6603 16.6092 23.6603 16.9226 23.6603 18.3328C23.6603 19.5864 23.347 20.2131 23.1903 20.6832C22.8769 21.31 22.7202 21.78 22.2501 22.2501C21.78 22.7202 21.31 23.0336 20.6832 23.1903C20.2131 23.347 19.5864 23.5036 18.3328 23.6603C16.9226 23.6603 16.6092 23.6603 13.0053 23.6603C9.40146 23.6603 9.08808 23.6603 7.67786 23.6603C6.42433 23.6603 5.79757 23.347 5.32749 23.1903C4.70073 22.8769 4.23066 22.7202 3.76058 22.2501C3.29051 21.78 2.97713 21.31 2.82044 20.6832C2.66375 20.2131 2.50706 19.5864 2.35036 18.3328C2.35036 16.9226 2.35036 16.6092 2.35036 13.0053C2.35036 9.40146 2.35036 9.08808 2.35036 7.67786C2.35036 6.42433 2.66375 5.79757 2.82044 5.32749C3.13382 4.70073 3.29051 4.23066 3.76058 3.76058C4.23066 3.29051 4.70073 2.97713 5.32749 2.82044C5.79757 2.66375 6.42433 2.50706 7.67786 2.35036C9.08808 2.35036 9.55815 2.35036 13.0053 2.35036ZM13.0053 0C9.40146 0 9.08808 0 7.67786 0C6.26764 0 5.32749 0.313383 4.54404 0.626765C3.76058 0.940147 2.97713 1.41022 2.19367 2.19367C1.41022 2.97713 1.09684 3.60389 0.626765 4.54404C0.313383 5.32749 0.156691 6.26764 0 7.67786C0 9.08808 0 9.55815 0 13.0053C0 16.6092 0 16.9226 0 18.3328C0 19.7431 0.313383 20.6832 0.626765 21.4667C0.940147 22.2501 1.41022 23.0336 2.19367 23.817C2.97713 24.6005 3.60389 24.9139 4.54404 25.3839C5.32749 25.6973 6.26764 25.854 7.67786 26.0107C9.08808 26.0107 9.55815 26.0107 13.0053 26.0107C16.4525 26.0107 16.9226 26.0107 18.3328 26.0107C19.7431 26.0107 20.6832 25.6973 21.4667 25.3839C22.2501 25.0706 23.0336 24.6005 23.817 23.817C24.6005 23.0336 24.9139 22.4068 25.3839 21.4667C25.6973 20.6832 25.854 19.7431 26.0107 18.3328C26.0107 16.9226 26.0107 16.4525 26.0107 13.0053C26.0107 9.55815 26.0107 9.08808 26.0107 7.67786C26.0107 6.26764 25.6973 5.32749 25.3839 4.54404C25.0706 3.76058 24.6005 2.97713 23.817 2.19367C23.0336 1.41022 22.4068 1.09684 21.4667 0.626765C20.6832 0.313383 19.7431 0.156691 18.3328 0C16.9226 0 16.6092 0 13.0053 0Z" fill="black"/>
<path d="M13.0053 6.26764C9.24477 6.26764 6.26764 9.24477 6.26764 13.0053C6.26764 16.7659 9.24477 19.7431 13.0053 19.7431C16.7659 19.7431 19.7431 16.7659 19.7431 13.0053C19.7431 9.24477 16.7659 6.26764 13.0053 6.26764ZM13.0053 17.3927C10.655 17.3927 8.618 15.5124 8.618 13.0053C8.618 10.655 10.4983 8.618 13.0053 8.618C15.3557 8.618 17.3927 10.4983 17.3927 13.0053C17.3927 15.3557 15.3557 17.3927 13.0053 17.3927Z" fill="black"/>
<path d="M19.8997 7.67786C20.7651 7.67786 21.4667 6.97633 21.4667 6.11095C21.4667 5.24557 20.7651 4.54404 19.8997 4.54404C19.0344 4.54404 18.3328 5.24557 18.3328 6.11095C18.3328 6.97633 19.0344 7.67786 19.8997 7.67786Z" fill="black"/>
</svg>
