<svg width="40" height="40" viewBox="0 0 40 40" fill="none" xmlns="http://www.w3.org/2000/svg">
<path d="M26.8235 4.87695H12.1925C8.15222 4.87695 4.87695 8.15222 4.87695 12.1925V26.8235C4.87695 30.8637 8.15222 34.139 12.1925 34.139H26.8235C30.8637 34.139 34.139 30.8637 34.139 26.8235V12.1925C34.139 8.15222 30.8637 4.87695 26.8235 4.87695Z" stroke="#020618" stroke-width="2.4385" stroke-linecap="round" stroke-linejoin="round"/>
<path d="M13.0054 26.6205V17.4761M19.508 26.6205V21.9467M19.508 21.9467V17.4761M19.508 21.9467C19.508 19.8535 21.4946 18.6953 23.4096 18.6953C26.0107 18.6953 26.0107 20.9306 26.0107 23.3691V26.6205" stroke="#020618" stroke-width="2.4385" stroke-linecap="round" stroke-linejoin="round"/>
<path d="M13.0054 12.3955L13.0054 13.2083" stroke="#020618" stroke-width="2.4385" stroke-linecap="round" stroke-linejoin="round"/>
</svg>
