<svg width="87" height="30" viewBox="0 0 87 30" fill="none" xmlns="http://www.w3.org/2000/svg">
<path d="M84.8585 4.14285V24.4969C84.8585 26.3181 84.8985 28.2394 87 28.2394V28.6197H78.0538V28.2394C80.0552 28.2394 80.2553 26.7384 80.2553 24.8971V3.74258C80.2553 1.90131 80.0552 0.400278 78.0538 0.400278V0.0200157H87V0.400278C84.8985 0.400278 84.8585 2.3216 84.8585 4.14285Z" fill="#842036"/>
<path d="M58.16 3.62249V19.1532C63.7439 18.833 69.3677 16.4313 69.3677 8.52587C69.3677 3.66252 67.2463 0.800551 63.0434 0.800551H59.7011C58.14 0.980675 58.18 2.26156 58.16 3.62249ZM51.3553 0.0400276H63.0434C70.6887 0.0400276 74.071 3.42236 74.071 8.52587C74.071 13.7695 70.3885 16.8716 65.8653 18.5128C67.7466 18.7929 69.0075 19.8537 70.0282 21.4948C71.8495 24.2367 74.2311 27.639 76.7929 28.4396V28.6197H69.9482L65.2849 22.4555C63.8039 20.4741 62.6631 19.8937 59.7811 19.8937C59.2808 19.8937 58.7604 19.9137 58.16 19.9337V24.4969C58.16 26.0179 58.3602 26.9986 58.7604 27.619C59.0807 27.9993 59.561 28.2395 60.3015 28.2395V28.6197H51.3553V28.2395C53.3567 28.2395 53.5569 26.7384 53.5569 24.9172V3.74258C53.5569 1.92132 53.3567 0.400276 51.3553 0.400276V0.0400276Z" fill="#842036"/>
<path d="M45.6515 19.9738V3.70255C45.6515 1.8813 45.4513 0.380262 43.45 0.380262V0H49.8144V0.380262C47.7129 0.380262 47.6729 2.30158 47.6729 4.12284V19.9738C47.6729 26.098 42.3492 29.1601 37.2057 29.1601C32.1022 29.1601 27.0187 26.098 27.0187 19.9738V3.70255C27.0187 1.8813 26.8185 0.380262 24.8171 0.380262V0H33.7633V0.380262C31.6619 0.380262 31.6218 2.30158 31.6218 4.12284V19.9738C31.6218 25.1173 34.9241 27.4389 38.3865 27.4389C42.109 27.4389 45.6515 24.757 45.6515 19.9738Z" fill="#842036"/>
<path d="M6.00413 27.8592H15.5307C18.2326 27.8592 19.9337 26.4182 21.0745 24.5569L22.5155 25.1573L22.0952 28.6197H0V28.0593L16.9717 0.820565H8.66597C5.94409 0.820565 4.24292 2.24154 3.12215 4.10283L1.66114 3.50241L2.10145 0.0400276H23.1559V0.600414L6.00413 27.8592Z" fill="#842036"/>
</svg>
